<svg xmlns="http://www.w3.org/2000/svg" width="128" height="128" viewBox="0 0 256 256">
  <path fill="#6f83a5" d="M128 24a104 104 0 1 0 104 104A104.11 104.11 0 0 0 128 24m79.13 64H173.4A161.35 161.35 0 0 0 152 47.71A88.46 88.46 0 0 1 207.13 88M128 40c9.65 0 22.74 17.24 31.91 48h-63.82C105.26 57.24 118.35 40 128 40M40 128a87.6 87.6 0 0 1 4.22-27h39.49A170.12 170.12 0 0 0 80 128a170.12 170.12 0 0 0 3.71 27H44.22A87.6 87.6 0 0 1 40 128m9.31 40h38.13a162.4 162.4 0 0 0 11.78 28.73A87.68 87.68 0 0 1 49.31 168m38.13-80H49.31a87.68 87.68 0 0 1 49.91-28.73A162.4 162.4 0 0 0 87.44 88m40.56 128c-9.65 0-22.74-17.24-31.91-48h63.82C150.74 198.76 137.65 216 128 216m34.73-61h-69.46a155.1 155.1 0 0 1 0-54h69.46a155.1 155.1 0 0 1 0 54m-10.73 41.73A161.35 161.35 0 0 0 173.4 168h33.73A88.46 88.46 0 0 1 152 208.29M176 128a170.12 170.12 0 0 0-3.71-27h39.49a87.66 87.66 0 0 1 0 54h-39.49A170.12 170.12 0 0 0 176 128"/>
</svg>
